PathFileType  4	(X/Y/Z) C:\Users\antoi\Documents\MyRepositories\mobilecap\ResultsAnalysis
DataRate	CameraRate	NumFrames	NumMarkers	Units	OrigDataRate	OrigDataStartFrame	OrigNumFrames
100.0	100.0	6	51	mm	100.0	285	1139
Frame#	Time	r_knee			r_shank_antsup			r_ankle			r_calc			r_5meta			r_toe			L_knee			L_shank_antsup			L_ankle			L_calc			L_5meta			L_toe			r_sh2			r_sh3			r_sh4			L_sh2			L_sh3			r_thigh1			r_thigh2			r_thigh3			r_thigh4			r_thigh5			L_thigh1			L_thigh2			L_thigh3			L_thigh4			r.ASIS			r.PSIS			L.ASIS			L.PSIS			C7			R_Shoulder			L_Shoulder			R_Sternum			L_Sternum			R_humerus			R_elbow_med			R_elbow_lat			R_forearm			R_wrist_radius			R_wrist_ulna			L_humerus			L_elbow_med			L_elbow_lat			L_forearm			L_wrist_radius			L_wrist_ulna			R_HJC			L_HJC			R_HJC_reg			L_HJC_reg			
		X1	Y1	Z1	X2	Y2	Z2	X3	Y3	Z3	X4	Y4	Z4	X5	Y5	Z5	X6	Y6	Z6	X7	Y7	Z7	X8	Y8	Z8	X9	Y9	Z9	X10	Y10	Z10	X11	Y11	Z11	X12	Y12	Z12	X13	Y13	Z13	X14	Y14	Z14	X15	Y15	Z15	X16	Y16	Z16	X17	Y17	Z17	X18	Y18	Z18	X19	Y19	Z19	X20	Y20	Z20	X21	Y21	Z21	X22	Y22	Z22	X23	Y23	Z23	X24	Y24	Z24	X25	Y25	Z25	X26	Y26	Z26	X27	Y27	Z27	X28	Y28	Z28	X29	Y29	Z29	X30	Y30	Z30	X31	Y31	Z31	X32	Y32	Z32	X33	Y33	Z33	X34	Y34	Z34	X35	Y35	Z35	X36	Y36	Z36	X37	Y37	Z37	X38	Y38	Z38	X39	Y39	Z39	X40	Y40	Z40	X41	Y41	Z41	X42	Y42	Z42	X43	Y43	Z43	X44	Y44	Z44	X45	Y45	Z45	X46	Y46	Z46	X47	Y47	Z47	X48	Y48	Z48	X49	Y49	Z49	X50	Y50	Z50	X51	Y51	Z51	

285	2.84000000	-130.41819	568.95733	-342.73987	-114.89649	427.07090	-323.64300	-299.21661	108.71746	-308.80614	-356.85249	76.57059	-369.92702	-173.16810	42.58265	-261.72833	-128.94031	66.30080	-310.09398	-149.10175	563.42081	-905.65543	-131.96572	369.96076	-920.22893	-312.82787	115.83786	-934.85174	-374.56892	77.14260	-879.13143	-181.31830	35.08844	-984.38455	-136.58094	64.43569	-926.16404	-156.13465	323.92796	-323.08049	-181.46931	450.38080	-298.96592	-226.05493	347.66742	-287.23498	-199.10948	409.71482	-961.27406	-250.38916	301.86819	-954.33872	-363.78074	745.24994	-376.51815	-261.37102	707.66141	-353.38274	-265.53873	638.53338	-339.92244	-405.51815	640.29342	-386.30725	-296.30567	596.81177	-362.11447	-360.58374	759.91838	-833.71638	-244.15218	703.50991	-871.18498	-418.84692	670.15518	-855.30764	-299.85968	614.49154	-899.98895	-396.90772	808.41478	-471.11723	-539.81748	914.94686	-570.03285	-402.81769	782.35389	-738.97498	-536.69876	909.84879	-658.20014	-85.54775	1111.03683	-610.01043	-56.87871	1019.18993	-450.15568	-66.43987	1043.71618	-775.87843	-40.96103	953.19719	-587.08724	-44.18583	951.81895	-635.16484	-151.26040	871.25159	-267.88328	-267.02389	776.72303	-216.39182	-235.54261	841.34337	-165.37594	-61.47915	840.96005	-280.76681	9.96669	845.15570	-337.00950	16.32911	817.27665	-311.63640	-166.78933	862.65869	-938.60048	-293.84450	792.63549	-962.06845	-240.13649	826.93558	-1021.05576	-77.25053	837.59084	-901.41502	-30.66620	848.89388	-845.70525	-19.40172	826.48963	-869.71976	-510.46779	759.87679	-501.76188	-516.01174	747.05830	-698.74381	-501.38954	760.60427	-510.27495	-495.11961	750.35581	-687.53143	
286	2.85000000	-128.79365	569.46263	-343.37147	-113.97081	427.19506	-324.18234	-299.23720	108.82643	-309.57715	-356.59773	76.98693	-370.02230	-172.96078	42.68518	-261.75640	-128.67030	66.00216	-310.06974	-148.81854	564.09058	-906.26500	-132.08247	370.18586	-920.47266	-312.84627	116.00269	-935.04256	-374.50146	77.29549	-879.08930	-181.32354	35.01882	-984.50115	-136.55158	64.32081	-926.22713	-155.25389	323.75958	-323.67349	-180.38696	450.60269	-299.67405	-225.15156	347.93809	-287.87346	-199.21643	409.99306	-961.76206	-250.45325	302.03301	-954.47833	-357.51194	750.70612	-376.64603	-256.21058	710.09844	-353.58853	-262.44099	641.64423	-340.13495	-402.33476	646.35440	-386.71471	-294.01254	600.63008	-362.55353	-355.04547	764.33461	-832.03483	-240.55381	706.53590	-871.52027	-416.17781	676.40571	-854.84372	-298.54698	618.22854	-899.89780	-392.45187	817.82466	-470.91939	-536.20333	924.85822	-569.48124	-398.93952	791.74822	-738.22224	-533.03892	919.46215	-657.66862	-83.70989	1124.65083	-610.02234	-54.81969	1032.71366	-449.44662	-64.20886	1056.69977	-776.02436	-38.19771	966.96685	-587.18736	-41.08424	966.13856	-635.26260	-153.54092	884.03845	-269.35823	-271.92351	791.14771	-220.56845	-239.51153	854.81647	-168.12243	-64.11428	851.06861	-281.50504	8.16729	853.98114	-336.96810	13.56847	825.82574	-311.58280	-167.88449	874.49888	-936.61795	-295.68348	806.46513	-957.59402	-242.41203	839.23986	-1017.98504	-78.24924	847.73576	-899.87330	-30.63898	858.83985	-844.89915	-20.06734	835.95052	-868.88533	-506.35640	769.52917	-501.11224	-512.23974	756.56372	-698.07489	-497.30778	770.58770	-509.92883	-490.96140	759.76445	-686.79284	
287	2.86000000	-127.45065	570.00480	-343.81642	-113.30350	427.38145	-324.64810	-299.21002	109.03497	-309.90539	-356.33355	77.40839	-370.04591	-172.88330	42.73275	-261.74108	-128.44938	65.79143	-310.11519	-148.69825	564.81763	-906.73791	-132.26515	370.50228	-920.71347	-312.87265	116.15511	-935.20104	-374.43722	77.45591	-879.06762	-181.32858	34.94645	-984.62003	-136.52629	64.23311	-926.33046	-154.66362	323.90681	-323.95148	-179.65421	451.05825	-300.11633	-224.55496	348.47306	-288.33119	-199.46431	410.27077	-962.12473	-250.63400	302.35025	-954.73028	-350.77337	756.30293	-376.70396	-250.86088	712.13789	-353.76672	-259.53782	644.78900	-340.27860	-399.33242	652.59222	-387.08002	-291.96408	604.66951	-362.91029	-349.89402	769.75977	-830.78387	-237.28748	709.53111	-872.07663	-413.52383	682.73491	-854.46294	-297.31545	622.07002	-899.71093	-388.28223	827.41138	-470.75575	-532.69095	934.67442	-568.99323	-395.14191	801.82618	-738.01879	-529.55969	929.26779	-657.12159	-82.11538	1138.67208	-610.08361	-52.88791	1046.47158	-448.83411	-62.26053	1070.28345	-776.39098	-36.00733	980.81122	-587.88841	-38.29990	980.52976	-635.10646	-155.84883	897.23708	-270.96418	-276.87957	806.23263	-224.65300	-243.50601	868.78497	-171.09033	-66.89352	861.67035	-282.24795	6.24202	863.28954	-336.96013	10.65869	834.93537	-311.52893	-169.25500	886.68265	-934.42451	-297.22501	820.58988	-952.60658	-244.84092	852.10425	-1015.04665	-79.24214	858.41890	-898.67352	-30.67692	869.21950	-844.32628	-20.77333	845.92471	-868.29259	-502.29936	779.10813	-500.85380	-508.43012	766.44078	-697.82726	-493.30006	780.40017	-509.72795	-487.01931	769.55333	-686.54158	
288	2.87000000	-126.43424	570.57104	-344.07499	-112.79480	427.67020	-325.07055	-299.12204	109.28317	-309.96175	-356.10719	77.77660	-369.98267	-172.85837	42.75789	-261.74109	-128.25461	65.68935	-310.21477	-148.71314	565.66001	-907.12622	-132.52019	370.95194	-920.97269	-312.89784	116.31215	-935.33461	-374.38140	77.58905	-879.05804	-181.33448	34.88130	-984.70005	-136.51421	64.18766	-926.44803	-154.20714	324.29942	-324.09800	-179.21442	451.58125	-300.24362	-224.03312	348.99528	-288.62199	-199.80712	410.53900	-962.40906	-250.88583	302.69258	-955.01998	-344.99771	761.77310	-376.59727	-246.34511	714.63509	-353.66858	-256.86090	648.02286	-340.28387	-396.51743	659.01422	-387.39855	-290.14569	608.83274	-363.15653	-346.38621	776.52213	-832.92540	-234.32637	712.54027	-872.66502	-410.87278	689.19010	-854.28088	-296.13518	626.00681	-899.52087	-384.45845	836.97741	-470.62416	-529.32012	944.47246	-568.31946	-391.54576	812.14049	-738.10327	-526.22997	939.17381	-656.62675	-80.77676	1153.07735	-610.24134	-50.99673	1060.87910	-448.48051	-60.52104	1084.51566	-776.81447	-33.80846	995.43753	-588.61391	-35.70917	995.15033	-634.86310	-158.19690	910.81576	-272.69800	-281.83598	822.33593	-228.63539	-247.55162	883.24760	-174.19496	-69.74985	872.68773	-283.01867	4.17352	872.93128	-337.01477	7.58045	844.49449	-311.48399	-170.77115	899.39134	-932.25189	-299.29232	835.19065	-947.94582	-247.57149	865.40180	-1011.91664	-80.29552	869.54346	-897.66184	-30.85435	879.82047	-843.73485	-21.60000	856.30246	-867.72474	-498.47872	788.61922	-500.77699	-504.82045	776.51626	-697.77922	-489.56939	790.11828	-509.64052	-483.37760	779.50078	-686.57384	
289	2.88000000	-125.76402	571.27309	-344.23365	-112.48626	428.09015	-325.34690	-298.90009	109.81864	-309.74794	-355.92610	78.08341	-369.93220	-172.75216	42.81805	-261.78165	-128.08944	65.62494	-310.29640	-148.89030	566.62429	-907.53547	-132.88369	371.52663	-921.19952	-312.93923	116.52201	-935.50921	-374.32181	77.72291	-879.05298	-181.32055	34.83794	-984.72541	-136.50624	64.15728	-926.50798	-153.85010	324.72356	-324.32167	-178.99655	451.94859	-300.31240	-223.68594	349.29920	-288.81568	-200.20009	410.82916	-962.72321	-251.12948	302.91089	-955.23764	-340.35124	767.20210	-376.46800	-242.78734	717.94408	-353.31902	-254.48383	651.35937	-340.32382	-393.84403	665.50221	-387.70822	-288.56651	613.02177	-363.32711	-342.92823	782.43682	-835.55627	-231.47940	715.35389	-873.05803	-408.21489	695.66121	-853.68108	-294.98985	630.07819	-899.50475	-381.04410	846.30044	-470.53498	-525.96896	954.30656	-567.65447	-388.35969	822.00587	-738.30152	-523.01620	949.12123	-656.23493	-79.75511	1167.89032	-610.50850	-49.20253	1075.76082	-448.34932	-59.03557	1099.21730	-777.13144	-31.40430	1010.91736	-589.02681	-33.29145	1010.26951	-634.92863	-160.61076	924.78642	-274.48681	-286.64578	838.93728	-232.84268	-251.59361	898.22121	-177.30825	-72.67127	884.05188	-283.95928	1.89917	882.78865	-337.24234	4.29012	854.33573	-311.61423	-172.39870	912.71004	-930.29785	-301.99251	850.33147	-943.62208	-250.53832	879.02798	-1008.45540	-81.58663	880.98408	-896.55396	-31.18587	890.67101	-843.08789	-22.56947	866.93248	-867.03184	-495.15058	798.14462	-500.71563	-501.75377	786.52420	-697.74182	-486.26575	799.73397	-509.51069	-480.35841	789.36055	-686.62684	
290	2.89000000	-125.36891	572.05345	-344.37817	-112.44806	428.58865	-325.43535	-298.63632	110.51710	-309.37389	-355.75065	78.38222	-370.01860	-172.59066	42.90667	-261.83666	-127.97571	65.52929	-310.32051	-149.25047	567.62903	-907.86246	-133.35956	372.13021	-921.33259	-312.99411	116.76771	-935.68935	-374.24653	77.90057	-879.02922	-181.28554	34.82241	-984.73611	-136.47480	64.09493	-926.48891	-153.64942	325.16593	-324.53121	-178.96319	452.25266	-300.42252	-223.55067	349.50368	-288.91856	-200.66506	411.16673	-963.04162	-251.36117	303.05948	-955.38043	-336.18155	772.73790	-375.91252	-239.56154	721.48406	-352.96025	-252.42090	654.72921	-340.46093	-391.33779	672.09102	-387.70363	-287.23782	617.18964	-363.57951	-338.07543	786.79544	-835.36647	-228.66262	717.99535	-873.45186	-405.57407	702.06097	-852.54639	-293.91045	634.22136	-899.63864	-377.98643	855.34169	-470.49551	-522.42878	963.85173	-567.31269	-385.81395	832.06467	-739.60513	-519.91535	959.10544	-655.95374	-79.04818	1183.01399	-610.79113	-47.55308	1090.89399	-448.40204	-57.89180	1114.23607	-777.39508	-29.10126	1026.63970	-589.25363	-31.09207	1025.85923	-635.25060	-163.03751	939.18184	-276.34851	-291.58059	855.72839	-237.24482	-255.48494	913.63596	-180.47609	-75.70470	895.62801	-285.20244	-0.61081	892.78285	-337.72283	0.79939	864.27748	-312.10672	-174.25489	926.37138	-928.26050	-304.79142	865.93098	-939.03164	-253.54383	892.84092	-1004.64291	-83.04602	892.79097	-895.35596	-31.73638	901.78141	-842.36099	-23.73603	877.76567	-866.20150	-492.10107	807.42339	-501.21463	-499.17010	796.70726	-698.27420	-483.31152	808.81625	-509.40862	-478.26968	799.28969	-687.42619	
